<svg xmlns="http://www.w3.org/2000/svg" width="24" height="24" viewBox="0 0 24 24" fill="none">
  <!-- Clean gradient background -->
  <defs>
    <linearGradient id="gradient" x1="0%" y1="0%" x2="0%" y2="100%">
      <stop offset="0%" stop-color="#60a5fa" />
      <stop offset="100%" stop-color="#2563eb" />
    </linearGradient>
  </defs>

  <rect x="3" y="3" width="18" height="18" rx="4" ry="4" fill="url(#gradient)" />

  <!-- Professional stylized 'S' for spelling -->
  <path d="M9 7c0-.8.6-1.5 1.5-1.5h3c.9 0 1.5.7 1.5 1.5S14.4 9 13.5 9h-3" stroke="white" stroke-width="1.7" stroke-linecap="round"/>
  <path d="M10 15c-.9 0-1.5.7-1.5 1.5S9.1 18 10 18h3c.9 0 1.5-.7 1.5-1.5S13.9 15 13 15h-3" stroke="white" stroke-width="1.7" stroke-linecap="round"/>
  <path d="M13.5 9L10.5 15" stroke="white" stroke-width="1.7" stroke-linecap="round"/>
</svg>
